<?xml version="1.0" standalone="no"?>
<!DOCTYPE svg PUBLIC "-//W3C//DTD SVG 20010904//EN"
 "http://www.w3.org/TR/2001/REC-SVG-20010904/DTD/svg10.dtd">
<svg version="1.0" xmlns="http://www.w3.org/2000/svg"
 width="2000.000000pt" height="2000.000000pt" viewBox="0 0 2000.000000 2000.000000"
 preserveAspectRatio="xMidYMid meet">
<metadata>
Created by potrace 1.16, written by Peter Selinger 2001-2019
</metadata>
<g transform="translate(0.000000,2000.000000) scale(0.100000,-0.100000)"
fill="#000000" stroke="none">
<path d="M5066 17231 c-3 -4 -36 -11 -73 -15 -76 -8 -226 -37 -318 -62 -33 -9
-73 -20 -90 -24 -121 -33 -375 -145 -550 -243 -85 -47 -247 -160 -345 -241
-83 -69 -281 -270 -354 -361 -69 -85 -194 -262 -209 -295 -4 -8 -17 -31 -28
-50 -65 -107 -150 -296 -208 -460 -41 -117 -94 -350 -107 -470 -4 -36 -11 -70
-15 -76 -5 -6 -8 -2147 -6 -4940 3 -4458 5 -4938 19 -5019 34 -192 58 -290
102 -426 250 -773 851 -1384 1626 -1652 152 -53 353 -100 483 -113 37 -4 70
-11 73 -15 7 -12 9861 -12 9868 0 3 4 36 11 73 15 239 23 555 121 813 251 132
67 131 66 280 164 364 239 677 599 879 1009 122 249 214 554 237 785 3 37 10
70 15 73 12 7 12 9861 0 9868 -4 3 -11 36 -15 73 -12 120 -52 301 -102 450
-296 894 -1024 1543 -1944 1733 -222 46 108 43 -5167 47 -2750 2 -4934 -1
-4937 -6z m4281 -3021 c39 -22 61 -44 83 -83 l30 -52 0 -1685 0 -1685 -30 -52
c-22 -39 -44 -61 -83 -83 l-52 -30 -1685 0 -1685 0 -52 30 c-39 22 -61 44 -83
83 l-30 52 0 1685 0 1685 30 52 c22 39 44 61 83 83 l52 30 1685 0 1685 0 52
-30z m4780 0 c39 -22 61 -44 83 -83 l30 -52 0 -1685 0 -1685 -30 -52 c-22 -39
-44 -61 -83 -83 l-52 -30 -1677 0 c-1615 0 -1678 1 -1720 19 -55 23 -96 64
-119 119 -18 42 -19 105 -19 1720 l0 1677 30 52 c22 39 44 61 83 83 l52 30
1685 0 1685 0 52 -30z m-4797 -4782 c39 -24 61 -47 81 -83 l28 -50 0 -1685 1
-1685 -30 -52 c-22 -39 -44 -61 -83 -83 l-52 -30 -1685 0 -1685 0 -52 30 c-39
22 -61 44 -83 83 l-30 52 0 1685 0 1685 30 52 c22 39 44 61 83 83 l52 30 1685
0 1686 0 54 -32z m3127 20 c52 -22 101 -68 125 -116 l23 -47 3 -1529 c1 -840
5 -1532 8 -1537 3 -5 254 -9 585 -9 l579 0 -2 583 -3 582 -260 6 c-143 4 -272
10 -288 14 -50 13 -122 88 -140 146 -9 28 -17 59 -17 69 0 10 8 41 17 69 19
61 93 134 144 145 17 3 211 6 431 6 312 0 406 -3 431 -13 50 -21 93 -63 116
-112 21 -45 21 -50 21 -912 l0 -868 -30 -52 c-22 -39 -44 -61 -83 -83 l-52
-30 -870 0 -870 1 -45 23 c-58 29 -105 91 -119 156 -8 36 -11 499 -11 1552 0
825 -2 1504 -5 1509 -4 5 -241 9 -586 9 l-579 0 2 -587 3 -588 280 -5 c267 -5
281 -6 310 -27 51 -37 82 -76 99 -126 20 -60 20 -72 -1 -136 -24 -74 -91 -134
-169 -150 -76 -15 -724 -15 -794 0 -65 14 -127 61 -156 119 l-23 45 -1 870 0
870 30 52 c22 39 44 61 83 83 l52 30 867 0 c655 0 874 -3 895 -12z m1635 -7
c55 -23 96 -64 119 -119 18 -40 19 -75 19 -442 0 -371 -1 -400 -19 -441 -78
-176 -319 -180 -405 -7 l-26 52 0 263 0 263 -263 0 -263 0 -52 26 c-144 72
-172 256 -55 366 59 56 64 56 500 57 371 1 405 0 445 -18z m-3270 -2538 c66
-25 105 -60 133 -116 25 -51 25 -52 25 -314 l0 -263 263 0 c262 0 263 0 314
-25 58 -29 92 -68 118 -137 38 -101 -17 -222 -124 -269 -41 -18 -70 -19 -450
-19 l-406 0 -52 30 c-39 22 -61 44 -83 83 l-30 52 0 406 c0 443 1 451 58 512
64 69 154 92 234 60z"/>
<path d="M6210 12390 l0 -1400 1398 2 1397 3 3 1398 2 1397 -1400 0 -1400 0 0
-1400z"/>
<path d="M10990 12390 l0 -1400 1400 0 1400 0 0 1400 0 1400 -1400 0 -1400 0
0 -1400z"/>
<path d="M6195 8998 c-3 -7 -4 -636 -3 -1398 l3 -1385 1398 -3 1397 -2 -2
1397 -3 1398 -1393 3 c-1109 2 -1394 0 -1397 -10z"/>
</g>
</svg>
